<mxfile host="app.diagrams.net" modified="2021-12-06T17:25:20.965Z" agent="5.0 (iPad; CPU OS 15_1 like Mac OS X) AppleWebKit/605.1.15 (KHTML, like Gecko) Version/15.1 Mobile/15E148 Safari/604.1" etag="XmkI_ai4PYI1T5O4Y-YI" version="15.9.1" type="github">
  <diagram id="C5RBs43oDa-KdzZeNtuy" name="Page-1">
    <mxGraphModel dx="614" dy="556" grid="1" gridSize="10" guides="1" tooltips="1" connect="1" arrows="1" fold="1" page="1" pageScale="1" pageWidth="827" pageHeight="1169" math="0" shadow="0">
      <root>
        <mxCell id="WIyWlLk6GJQsqaUBKTNV-0" />
        <mxCell id="WIyWlLk6GJQsqaUBKTNV-1" parent="WIyWlLk6GJQsqaUBKTNV-0" />
        <mxCell id="pwY2RWYbOQJC6PvGF_8O-1" value="Yes" style="edgeStyle=orthogonalEdgeStyle;rounded=0;orthogonalLoop=1;jettySize=auto;html=1;exitX=0.5;exitY=1;exitDx=0;exitDy=0;entryX=0.5;entryY=0;entryDx=0;entryDy=0;" edge="1" parent="WIyWlLk6GJQsqaUBKTNV-1" source="WIyWlLk6GJQsqaUBKTNV-3" target="pwY2RWYbOQJC6PvGF_8O-0">
          <mxGeometry relative="1" as="geometry" />
        </mxCell>
        <mxCell id="pwY2RWYbOQJC6PvGF_8O-4" value="No" style="edgeStyle=orthogonalEdgeStyle;rounded=0;orthogonalLoop=1;jettySize=auto;html=1;" edge="1" parent="WIyWlLk6GJQsqaUBKTNV-1" source="WIyWlLk6GJQsqaUBKTNV-3" target="pwY2RWYbOQJC6PvGF_8O-3">
          <mxGeometry relative="1" as="geometry" />
        </mxCell>
        <mxCell id="WIyWlLk6GJQsqaUBKTNV-3" value="Ask if they want to start a game of blackjack" style="rounded=1;whiteSpace=wrap;html=1;fontSize=12;glass=0;strokeWidth=1;shadow=0;" parent="WIyWlLk6GJQsqaUBKTNV-1" vertex="1">
          <mxGeometry x="210" y="30" width="120" height="40" as="geometry" />
        </mxCell>
        <mxCell id="WIyWlLk6GJQsqaUBKTNV-4" value="No" style="rounded=0;html=1;jettySize=auto;orthogonalLoop=1;fontSize=11;endArrow=block;endFill=0;endSize=8;strokeWidth=1;shadow=0;labelBackgroundColor=none;edgeStyle=orthogonalEdgeStyle;" parent="WIyWlLk6GJQsqaUBKTNV-1" source="WIyWlLk6GJQsqaUBKTNV-6" edge="1">
          <mxGeometry y="20" relative="1" as="geometry">
            <mxPoint as="offset" />
            <mxPoint x="270" y="300" as="targetPoint" />
          </mxGeometry>
        </mxCell>
        <mxCell id="WIyWlLk6GJQsqaUBKTNV-5" value="Yes" style="edgeStyle=orthogonalEdgeStyle;rounded=0;html=1;jettySize=auto;orthogonalLoop=1;fontSize=11;endArrow=block;endFill=0;endSize=8;strokeWidth=1;shadow=0;labelBackgroundColor=none;" parent="WIyWlLk6GJQsqaUBKTNV-1" source="WIyWlLk6GJQsqaUBKTNV-6" target="WIyWlLk6GJQsqaUBKTNV-7" edge="1">
          <mxGeometry y="10" relative="1" as="geometry">
            <mxPoint as="offset" />
          </mxGeometry>
        </mxCell>
        <mxCell id="WIyWlLk6GJQsqaUBKTNV-6" value="Computer has blackjack?" style="rhombus;whiteSpace=wrap;html=1;shadow=0;fontFamily=Helvetica;fontSize=12;align=center;strokeWidth=1;spacing=6;spacingTop=-4;" parent="WIyWlLk6GJQsqaUBKTNV-1" vertex="1">
          <mxGeometry x="220" y="180" width="100" height="80" as="geometry" />
        </mxCell>
        <mxCell id="WIyWlLk6GJQsqaUBKTNV-7" value="Computer wins" style="rounded=1;whiteSpace=wrap;html=1;fontSize=12;glass=0;strokeWidth=1;shadow=0;" parent="WIyWlLk6GJQsqaUBKTNV-1" vertex="1">
          <mxGeometry x="370" y="200" width="120" height="40" as="geometry" />
        </mxCell>
        <mxCell id="pwY2RWYbOQJC6PvGF_8O-5" value="" style="edgeStyle=orthogonalEdgeStyle;rounded=0;orthogonalLoop=1;jettySize=auto;html=1;" edge="1" parent="WIyWlLk6GJQsqaUBKTNV-1" source="pwY2RWYbOQJC6PvGF_8O-0" target="WIyWlLk6GJQsqaUBKTNV-6">
          <mxGeometry relative="1" as="geometry" />
        </mxCell>
        <mxCell id="pwY2RWYbOQJC6PvGF_8O-0" value="Deal a hand" style="rounded=1;whiteSpace=wrap;html=1;" vertex="1" parent="WIyWlLk6GJQsqaUBKTNV-1">
          <mxGeometry x="210" y="110" width="120" height="40" as="geometry" />
        </mxCell>
        <mxCell id="pwY2RWYbOQJC6PvGF_8O-3" value="Exit" style="rounded=1;whiteSpace=wrap;html=1;" vertex="1" parent="WIyWlLk6GJQsqaUBKTNV-1">
          <mxGeometry x="380" y="30" width="120" height="40" as="geometry" />
        </mxCell>
        <mxCell id="pwY2RWYbOQJC6PvGF_8O-10" value="" style="edgeStyle=orthogonalEdgeStyle;rounded=0;orthogonalLoop=1;jettySize=auto;html=1;" edge="1" parent="WIyWlLk6GJQsqaUBKTNV-1" source="pwY2RWYbOQJC6PvGF_8O-8" target="pwY2RWYbOQJC6PvGF_8O-9">
          <mxGeometry relative="1" as="geometry" />
        </mxCell>
        <mxCell id="pwY2RWYbOQJC6PvGF_8O-8" value="Ace = 11; but if total &amp;gt; 21 then Ace = 1" style="rounded=1;whiteSpace=wrap;html=1;" vertex="1" parent="WIyWlLk6GJQsqaUBKTNV-1">
          <mxGeometry x="210" y="300" width="120" height="40" as="geometry" />
        </mxCell>
        <mxCell id="pwY2RWYbOQJC6PvGF_8O-13" value="" style="edgeStyle=orthogonalEdgeStyle;rounded=0;orthogonalLoop=1;jettySize=auto;html=1;" edge="1" parent="WIyWlLk6GJQsqaUBKTNV-1" source="pwY2RWYbOQJC6PvGF_8O-9" target="pwY2RWYbOQJC6PvGF_8O-11">
          <mxGeometry relative="1" as="geometry" />
        </mxCell>
        <mxCell id="pwY2RWYbOQJC6PvGF_8O-9" value="Show 1st computer card to player" style="rounded=1;whiteSpace=wrap;html=1;" vertex="1" parent="WIyWlLk6GJQsqaUBKTNV-1">
          <mxGeometry x="210" y="370" width="120" height="40" as="geometry" />
        </mxCell>
        <mxCell id="pwY2RWYbOQJC6PvGF_8O-14" value="Yes" style="edgeStyle=orthogonalEdgeStyle;rounded=0;orthogonalLoop=1;jettySize=auto;html=1;" edge="1" parent="WIyWlLk6GJQsqaUBKTNV-1" source="pwY2RWYbOQJC6PvGF_8O-11" target="pwY2RWYbOQJC6PvGF_8O-12">
          <mxGeometry relative="1" as="geometry" />
        </mxCell>
        <mxCell id="pwY2RWYbOQJC6PvGF_8O-16" value="No" style="edgeStyle=orthogonalEdgeStyle;rounded=0;orthogonalLoop=1;jettySize=auto;html=1;" edge="1" parent="WIyWlLk6GJQsqaUBKTNV-1" source="pwY2RWYbOQJC6PvGF_8O-11" target="pwY2RWYbOQJC6PvGF_8O-15">
          <mxGeometry relative="1" as="geometry" />
        </mxCell>
        <mxCell id="pwY2RWYbOQJC6PvGF_8O-11" value="Total &amp;gt;=21?" style="rhombus;whiteSpace=wrap;html=1;" vertex="1" parent="WIyWlLk6GJQsqaUBKTNV-1">
          <mxGeometry x="230" y="450" width="80" height="80" as="geometry" />
        </mxCell>
        <mxCell id="pwY2RWYbOQJC6PvGF_8O-12" value="End &amp;nbsp;game" style="rounded=1;whiteSpace=wrap;html=1;" vertex="1" parent="WIyWlLk6GJQsqaUBKTNV-1">
          <mxGeometry x="370" y="475" width="120" height="30" as="geometry" />
        </mxCell>
        <mxCell id="pwY2RWYbOQJC6PvGF_8O-19" value="Yes" style="edgeStyle=orthogonalEdgeStyle;rounded=0;orthogonalLoop=1;jettySize=auto;html=1;" edge="1" parent="WIyWlLk6GJQsqaUBKTNV-1" source="pwY2RWYbOQJC6PvGF_8O-15" target="pwY2RWYbOQJC6PvGF_8O-17">
          <mxGeometry relative="1" as="geometry" />
        </mxCell>
        <mxCell id="pwY2RWYbOQJC6PvGF_8O-20" value="No" style="edgeStyle=orthogonalEdgeStyle;rounded=0;orthogonalLoop=1;jettySize=auto;html=1;" edge="1" parent="WIyWlLk6GJQsqaUBKTNV-1" source="pwY2RWYbOQJC6PvGF_8O-15" target="pwY2RWYbOQJC6PvGF_8O-18">
          <mxGeometry relative="1" as="geometry" />
        </mxCell>
        <mxCell id="pwY2RWYbOQJC6PvGF_8O-15" value="Ask if player wants to draw another card" style="rounded=1;whiteSpace=wrap;html=1;" vertex="1" parent="WIyWlLk6GJQsqaUBKTNV-1">
          <mxGeometry x="210" y="565" width="120" height="40" as="geometry" />
        </mxCell>
        <mxCell id="pwY2RWYbOQJC6PvGF_8O-21" style="edgeStyle=orthogonalEdgeStyle;rounded=0;orthogonalLoop=1;jettySize=auto;html=1;entryX=0;entryY=0.5;entryDx=0;entryDy=0;" edge="1" parent="WIyWlLk6GJQsqaUBKTNV-1" source="pwY2RWYbOQJC6PvGF_8O-17" target="pwY2RWYbOQJC6PvGF_8O-11">
          <mxGeometry relative="1" as="geometry">
            <Array as="points">
              <mxPoint x="110" y="490" />
            </Array>
          </mxGeometry>
        </mxCell>
        <mxCell id="pwY2RWYbOQJC6PvGF_8O-17" value="Draw another card" style="rounded=1;whiteSpace=wrap;html=1;" vertex="1" parent="WIyWlLk6GJQsqaUBKTNV-1">
          <mxGeometry x="50" y="565" width="120" height="40" as="geometry" />
        </mxCell>
        <mxCell id="pwY2RWYbOQJC6PvGF_8O-23" value="" style="edgeStyle=orthogonalEdgeStyle;rounded=0;orthogonalLoop=1;jettySize=auto;html=1;" edge="1" parent="WIyWlLk6GJQsqaUBKTNV-1" source="pwY2RWYbOQJC6PvGF_8O-18" target="pwY2RWYbOQJC6PvGF_8O-22">
          <mxGeometry relative="1" as="geometry" />
        </mxCell>
        <mxCell id="pwY2RWYbOQJC6PvGF_8O-18" value="Computer draws another card until score &amp;gt; 16" style="rounded=1;whiteSpace=wrap;html=1;" vertex="1" parent="WIyWlLk6GJQsqaUBKTNV-1">
          <mxGeometry x="370" y="565" width="120" height="40" as="geometry" />
        </mxCell>
        <mxCell id="pwY2RWYbOQJC6PvGF_8O-25" value="" style="edgeStyle=orthogonalEdgeStyle;rounded=0;orthogonalLoop=1;jettySize=auto;html=1;" edge="1" parent="WIyWlLk6GJQsqaUBKTNV-1" source="pwY2RWYbOQJC6PvGF_8O-22" target="pwY2RWYbOQJC6PvGF_8O-24">
          <mxGeometry relative="1" as="geometry" />
        </mxCell>
        <mxCell id="pwY2RWYbOQJC6PvGF_8O-22" value="Compare scores" style="rhombus;whiteSpace=wrap;html=1;" vertex="1" parent="WIyWlLk6GJQsqaUBKTNV-1">
          <mxGeometry x="390" y="650" width="80" height="80" as="geometry" />
        </mxCell>
        <mxCell id="pwY2RWYbOQJC6PvGF_8O-27" value="" style="edgeStyle=orthogonalEdgeStyle;rounded=0;orthogonalLoop=1;jettySize=auto;html=1;" edge="1" parent="WIyWlLk6GJQsqaUBKTNV-1" source="pwY2RWYbOQJC6PvGF_8O-24" target="pwY2RWYbOQJC6PvGF_8O-26">
          <mxGeometry relative="1" as="geometry" />
        </mxCell>
        <mxCell id="pwY2RWYbOQJC6PvGF_8O-24" value="Win / lose / draw?" style="rounded=1;whiteSpace=wrap;html=1;" vertex="1" parent="WIyWlLk6GJQsqaUBKTNV-1">
          <mxGeometry x="370" y="760" width="120" height="40" as="geometry" />
        </mxCell>
        <mxCell id="pwY2RWYbOQJC6PvGF_8O-29" value="" style="edgeStyle=orthogonalEdgeStyle;rounded=0;orthogonalLoop=1;jettySize=auto;html=1;" edge="1" parent="WIyWlLk6GJQsqaUBKTNV-1" source="pwY2RWYbOQJC6PvGF_8O-26" target="pwY2RWYbOQJC6PvGF_8O-28">
          <mxGeometry relative="1" as="geometry" />
        </mxCell>
        <mxCell id="pwY2RWYbOQJC6PvGF_8O-26" value="PrInt final hands and &amp;nbsp;scores" style="rounded=1;whiteSpace=wrap;html=1;" vertex="1" parent="WIyWlLk6GJQsqaUBKTNV-1">
          <mxGeometry x="370" y="840" width="120" height="40" as="geometry" />
        </mxCell>
        <mxCell id="pwY2RWYbOQJC6PvGF_8O-31" value="Yes" style="edgeStyle=orthogonalEdgeStyle;rounded=0;orthogonalLoop=1;jettySize=auto;html=1;" edge="1" parent="WIyWlLk6GJQsqaUBKTNV-1" source="pwY2RWYbOQJC6PvGF_8O-28" target="pwY2RWYbOQJC6PvGF_8O-30">
          <mxGeometry relative="1" as="geometry" />
        </mxCell>
        <mxCell id="pwY2RWYbOQJC6PvGF_8O-34" value="No" style="edgeStyle=orthogonalEdgeStyle;rounded=0;orthogonalLoop=1;jettySize=auto;html=1;" edge="1" parent="WIyWlLk6GJQsqaUBKTNV-1" source="pwY2RWYbOQJC6PvGF_8O-28" target="pwY2RWYbOQJC6PvGF_8O-33">
          <mxGeometry relative="1" as="geometry" />
        </mxCell>
        <mxCell id="pwY2RWYbOQJC6PvGF_8O-28" value="Ask if they want to play another game" style="rounded=1;whiteSpace=wrap;html=1;" vertex="1" parent="WIyWlLk6GJQsqaUBKTNV-1">
          <mxGeometry x="370" y="910" width="120" height="40" as="geometry" />
        </mxCell>
        <mxCell id="pwY2RWYbOQJC6PvGF_8O-35" style="edgeStyle=orthogonalEdgeStyle;rounded=0;orthogonalLoop=1;jettySize=auto;html=1;entryX=0;entryY=0.5;entryDx=0;entryDy=0;" edge="1" parent="WIyWlLk6GJQsqaUBKTNV-1" source="pwY2RWYbOQJC6PvGF_8O-30" target="pwY2RWYbOQJC6PvGF_8O-0">
          <mxGeometry relative="1" as="geometry">
            <Array as="points">
              <mxPoint x="30" y="1000" />
              <mxPoint x="30" y="130" />
            </Array>
          </mxGeometry>
        </mxCell>
        <mxCell id="pwY2RWYbOQJC6PvGF_8O-30" value="Clear console" style="rounded=1;whiteSpace=wrap;html=1;" vertex="1" parent="WIyWlLk6GJQsqaUBKTNV-1">
          <mxGeometry x="370" y="980" width="120" height="40" as="geometry" />
        </mxCell>
        <mxCell id="pwY2RWYbOQJC6PvGF_8O-33" value="Exit" style="rounded=1;whiteSpace=wrap;html=1;" vertex="1" parent="WIyWlLk6GJQsqaUBKTNV-1">
          <mxGeometry x="520" y="910" width="120" height="40" as="geometry" />
        </mxCell>
      </root>
    </mxGraphModel>
  </diagram>
</mxfile>
